<svg width="100" height="100" viewBox="0 0 100 100" fill="none" xmlns="http://www.w3.org/2000/svg">
<g clip-path="url(#clip0)">
<path d="M87.1405 32.0854C83.3157 27.2325 76.1116 22.028 63.5166 24.7893C59.5118 25.6674 56.0834 27.6245 53.3286 29.1971C53.1619 29.292 52.9864 29.3924 52.8069 29.494C52.7188 27.85 52.583 26.1045 52.3987 24.3153C55.4676 24.236 62.3635 23.5143 66.9748 18.903C72.9293 12.9487 72.3991 3.18149 72.3737 2.76879L72.2141 0.182271L69.6274 0.0225053C69.2153 -0.00308059 59.4473 -0.533549 53.4928 5.42114C51.9168 6.99711 50.7953 8.84028 49.9985 10.7063C49.1233 7.49575 48.0434 4.69243 46.7463 2.74243L41.8629 5.99086C44.5159 9.97895 46.4264 20.3735 46.9334 29.3469C46.8444 29.2961 46.7563 29.2459 46.6711 29.1973C43.9162 27.6247 40.4879 25.6676 36.483 24.7895C23.8873 22.0278 16.6842 27.2329 12.8592 32.0856C8.53011 37.5778 6.14633 45.7651 6.14691 55.1393C6.1473 63.986 8.21019 73.1104 11.9553 80.8311C14.7147 86.5192 18.186 91.0723 22.2727 94.3637C26.9166 98.1039 32.0987 100 37.6748 100C43.7854 100 46.2399 98.8916 48.0321 98.0825C48.9121 97.6852 49.2764 97.5205 50.0002 97.5205C50.7241 97.5205 51.0881 97.6852 51.9684 98.0825C53.7606 98.8916 56.2149 100 62.3256 100C67.9018 100 73.0838 98.1039 77.7276 94.3639C81.8143 91.0727 85.2858 86.5196 88.0452 80.8313C91.7903 73.1104 93.8532 63.9862 93.8536 55.1395C93.8534 45.7649 91.4696 37.5778 87.1405 32.0854ZM57.6399 9.56801C60.108 7.10004 63.8364 6.26645 66.4022 5.9934C66.1289 8.56079 65.2948 12.2881 62.8276 14.7557C60.3557 17.2276 56.6196 18.0598 54.0534 18.3319C54.3547 15.6065 55.2776 11.9305 57.6399 9.56801ZM82.7676 78.2711C76.0723 92.0737 67.086 94.1346 62.3252 94.1346C57.4774 94.1346 55.8328 93.392 54.3817 92.737C53.259 92.2299 51.9864 91.6555 49.9998 91.6555C48.0133 91.6555 46.7407 92.2301 45.618 92.737C44.167 93.3922 42.5225 94.1346 37.6745 94.1346C32.9135 94.1346 23.9274 92.0737 17.2321 78.2711C13.9147 71.4327 12.0121 63.0014 12.0118 55.1391C12.0114 47.0764 13.9481 40.1784 17.4653 35.7161C21.52 30.5719 27.4965 28.8233 35.2268 30.5184C38.3578 31.2047 41.3553 32.9159 43.7639 34.2907C46.201 35.6819 48.1262 36.7805 50 36.7805C51.8741 36.7805 53.7993 35.6819 56.2362 34.2907C58.6448 32.9159 61.6422 31.2049 64.7733 30.5184C72.5043 28.8229 78.4797 30.5717 82.5348 35.7161C86.052 40.1782 87.9885 47.0762 87.9883 55.1391C87.9875 63.0012 86.0848 71.4327 82.7676 78.2711Z" fill="url(#paint0_linear)"/>
</g>
<defs>
<linearGradient id="paint0_linear" x1="6" y1="6.10874e-05" x2="94" y2="100" gradientUnits="userSpaceOnUse">
<stop stop-color="#C6FFDD"/>
<stop offset="0.489583" stop-color="#FBD786"/>
<stop offset="1" stop-color="#F7797D"/>
</linearGradient>
<clipPath id="clip0">
<rect width="100" height="100" fill="white"/>
</clipPath>
</defs>
</svg>
