<svg width="71" height="75" viewBox="0 0 71 75" fill="none" xmlns="http://www.w3.org/2000/svg">
<circle cx="35.5" cy="35.7022" r="35.5" fill="#F6E377" fill-opacity="0.5"/>
<path d="M47.4868 33.12C51.9028 33.84 55.2868 35.496 57.6388 38.088C59.9908 40.632 61.1668 43.8 61.1668 47.592C61.1668 50.52 60.3988 53.232 58.8628 55.728C57.3268 58.176 54.9748 60.144 51.8068 61.632C48.6868 63.12 44.8468 63.864 40.2868 63.864C36.7348 63.864 33.2308 63.408 29.7748 62.496C26.3668 61.536 23.4628 60.192 21.0628 58.464L25.5988 49.536C27.5188 50.976 29.7268 52.104 32.2228 52.92C34.7668 53.688 37.3588 54.072 39.9988 54.072C42.9268 54.072 45.2308 53.52 46.9108 52.416C48.5908 51.264 49.4308 49.656 49.4308 47.592C49.4308 43.464 46.2868 41.4 39.9988 41.4H34.6708V33.696L45.0388 21.96H23.5828V12.6H58.8628V20.16L47.4868 33.12Z" fill="#333333"/>
</svg>
