<svg width="70" height="77" viewBox="0 0 70 77" fill="none" xmlns="http://www.w3.org/2000/svg">
<circle cx="35" cy="41.8652" r="35" fill="#F6E377" fill-opacity="0.5"/>
<path d="M57.4078 53.496V63H19.3198V55.44L38.7598 37.08C40.8238 35.112 42.2158 33.432 42.9358 32.04C43.6558 30.6 44.0158 29.184 44.0158 27.792C44.0158 25.776 43.3198 24.24 41.9278 23.184C40.5838 22.08 38.5918 21.528 35.9518 21.528C33.7438 21.528 31.7518 21.96 29.9758 22.824C28.1998 23.64 26.7118 24.888 25.5118 26.568L17.0158 21.096C18.9838 18.168 21.6958 15.888 25.1518 14.256C28.6078 12.576 32.5678 11.736 37.0318 11.736C40.7758 11.736 44.0398 12.36 46.8238 13.608C49.6558 14.808 51.8398 16.536 53.3758 18.792C54.9598 21 55.7518 23.616 55.7518 26.64C55.7518 29.376 55.1758 31.944 54.0238 34.344C52.8718 36.744 50.6398 39.48 47.3278 42.552L35.7358 53.496H57.4078Z" fill="#333333"/>
</svg>
